<svg width="64" height="64" viewBox="0 0 64 64" xmlns="http://www.w3.org/2000/svg"><g fill="none" fill-rule="evenodd"><path fill="#FF714F" d="M0 0h64v64H0z"/><path d="M12 51V12h39v39H33.667v-8.667h-4.334V51H12Zm4-3.667h4.333V43H16v4.333Zm0-9h4.333V34H16v4.333Zm0-9h4.333V25H16v4.333Zm0-9h4.333V16H16v4.333Zm9 18h4.333V34H25v4.333Zm0-9h4.333V25H25v4.333Zm0-9h4.333V16H25v4.333Zm9 18h4.333V34H34v4.333Zm0-9h4.333V25H34v4.333Zm8 0h4.333V25H42v4.333Zm-8-9h4.333V16H34v4.333Zm8 0h4.333V16H42v4.333Zm0 27h4.333V43H42v4.333Zm0-9h4.333V34H42v4.333Z" fill="#FFF" fill-rule="nonzero"/></g></svg>
