<svg xmlns="http://www.w3.org/2000/svg" viewBox="0 0 53 53"><path fill="#ed334c" d="M26.5.5a26.01 26.01 0 000 52 26.01 26.01 0 000-52zm-5 41c-5.5 0-9.9-4.4-9.9-9.9v-20h.2c2.6.7 4.7 2.5 5.8 4.9.1.2.2.5.3.7.3.8.4 1.7.4 2.6v11.7c0 .6.1 1.2.2 1.8a9.8 9.8 0 006.4 7.5c-1.1.5-2.2.7-3.4.7zm10.4 0c-5.5 0-9.9-4.4-9.9-9.9v-20h.2c2.6.7 4.7 2.5 5.8 4.9.1.2.2.5.3.7.3.8.4 1.7.4 2.6v11.7c0 .6 0 1.2.2 1.8a9.8 9.8 0 006.4 7.5c-1.1.5-2.3.7-3.4.7zm9.9-5.2a10 10 0 01-3.9 2.8c-3.2-1.1-5-3.8-5.7-7.1 1 .3 1.5.5 2.6.5 1 0 1.9-.2 2.8-.5 2.6-.8 4.6-2.7 5.8-5.1.2-.3.3-.7.4-1 0 .3.1.6.1.9l.1 3.1c.2 2.4-.7 4.7-2.2 6.4z"/><path fill="#FFF" d="M44.1 29.9a9.58 9.58 0 01-6.1 9.2c-3.2-1.1-5-3.8-5.7-7.1 1 .3 1.5.5 2.6.5 1 0 1.9-.2 2.8-.5 2.6-.8 4.6-2.7 5.8-5.1.2-.3.3-.7.4-1 0 .3.1.6.1.9l.1 3.1z"/><path fill="#FFF" d="M35.2 40.9c-1 .4-2.2.5-3.3.5-5.5 0-9.9-4.4-9.9-9.9v-20h.2c2.6.7 4.7 2.5 5.8 4.9.1.2.2.5.3.7.3.8.4 1.7.4 2.6v11.7c0 .6 0 1.2.2 1.8.5 3.7 3 6.5 6.3 7.7z"/><path fill="#FFF" d="M24.8 40.9c-1.1.4-2.2.5-3.3.5-5.5 0-9.9-4.4-9.9-9.9v-20h.2c2.6.7 4.7 2.5 5.8 4.9.1.2.2.5.3.7.3.8.4 1.7.4 2.6v11.7c0 .6.1 1.2.2 1.8.5 3.7 3 6.5 6.3 7.7z"/></svg>
