<svg width="520" height="520" xmlns="http://www.w3.org/2000/svg"><g fill="none" fill-rule="evenodd"><path fill="#D22136" fill-rule="nonzero" d="M145.702 404.144V108.52h-36.556v331.997zM447.444 46.478 484 10v463.43L447.427 510"/><path fill="#FF2540" fill-rule="nonzero" d="M109.137 440.623H372.47l36.75-36.479H145.694zM36 46.478 76.364 10H484l-36.556 36.478z"/><path fill="#3B3B6D" fill-rule="nonzero" d="M36 46.478h241.38v72.99H109.146V437.01h160.92V510H36z"/><path fill="#D22136" fill-rule="nonzero" d="m197.558 165.392 10.334-11.237v40.564l-10.334 11.405"/><path fill="#FF2540" fill-rule="nonzero" d="m167.774 154.155-11.084 11.236h40.868l10.334-11.236"/><path fill="#3B3B6D" d="M156.69 165.392h40.868v40.733H156.69z"/><path fill="#D22136" fill-rule="nonzero" d="m334.068 165.392 10.334-11.237v40.564l-10.334 11.405"/><path fill="#FF2540" fill-rule="nonzero" d="m231.776 154.155-11.084 11.236h113.376l10.334-11.236"/><path fill="#3B3B6D" d="M220.722 165.392h113.346v40.732H220.723z"/><path fill="#D22136" fill-rule="nonzero" d="m334.068 253.856 10.334-11.237v40.564l-10.334 11.405"/><path fill="#FF2540" fill-rule="nonzero" d="m231.776 242.62-11.084 11.235h113.376l10.334-11.236"/><path fill="#3B3B6D" d="M220.722 253.856h113.346v40.732H220.723z"/><path fill="#D22136" fill-rule="nonzero" d="m334.068 342.32 10.334-11.237v40.564l-10.334 11.405"/><path fill="#FF2540" fill-rule="nonzero" d="m231.776 331.083-11.084 11.236h113.376l10.334-11.236"/><path fill="#3B3B6D" d="M220.722 342.32h113.346v40.732H220.723z"/><path fill="#D22136" fill-rule="nonzero" d="m197.558 253.856 10.334-11.237v40.564l-10.334 11.405"/><path fill="#FF2540" fill-rule="nonzero" d="m167.774 242.62-11.084 11.235h40.868l10.334-11.236"/><path fill="#3B3B6D" d="M156.69 253.856h40.868v40.733H156.69z"/><path fill="#D22136" fill-rule="nonzero" d="m197.558 342.32 10.334-11.237v40.564l-10.334 11.405"/><path fill="#FF2540" fill-rule="nonzero" d="M167.774 331.083 156.69 342.32h40.868l10.334-11.236"/><path fill="#3B3B6D" d="M156.69 342.32h40.868v40.733H156.69z"/><path fill="#3B3B6D" fill-rule="nonzero" d="M447.427 46.478H264.563v72.99h109.702l.017 317.4H264.563V510h182.864z"/></g></svg>
