<svg width="64" height="64" viewBox="0 0 64 64" xmlns="http://www.w3.org/2000/svg"><g fill="none" fill-rule="evenodd"><path fill="#36D397" d="M0 0h64v64H0z"/><path d="m38.762 52-13.524-4.736-10.27 3.994c-.724.305-1.399.233-2.026-.214-.628-.447-.942-1.06-.942-1.84V18.106c0-.476.138-.904.414-1.284.275-.38.651-.657 1.127-.828L25.238 12l13.524 4.736 10.27-3.994c.724-.305 1.399-.233 2.026.214.628.447.942 1.06.942 1.84v31.155c0 .476-.143.894-.428 1.256a2.506 2.506 0 0 1-1.113.799L38.762 52Zm-2.169-5.25V20.445l-9.186-3.195v26.305l9.186 3.195Z" fill="#FFF" fill-rule="nonzero"/></g></svg>
