<svg width="64" height="64" viewBox="0 0 64 64" xmlns="http://www.w3.org/2000/svg"><path d="M25.107 39.733c.35 0 .646-.122.89-.367.243-.244.365-.541.365-.89 0-.35-.122-.647-.366-.89a1.215 1.215 0 0 0-.892-.366c-.35 0-.646.122-.89.366a1.215 1.215 0 0 0-.365.891c0 .35.122.647.367.89.244.244.54.366.89.366Zm0-6.477c.35 0 .646-.122.89-.366.243-.244.365-.541.365-.891s-.122-.647-.366-.89a1.215 1.215 0 0 0-.892-.365c-.35 0-.646.122-.89.366a1.215 1.215 0 0 0-.365.891c0 .35.122.647.367.89.244.244.54.365.89.365Zm0-6.476c.35 0 .646-.122.89-.366.243-.245.365-.542.365-.891 0-.35-.122-.647-.366-.89a1.215 1.215 0 0 0-.892-.366c-.35 0-.646.122-.89.367a1.215 1.215 0 0 0-.365.89c0 .35.122.647.367.89.244.244.54.366.89.366Zm6.283 12.731h7.384c.293 0 .539-.1.737-.3.199-.198.298-.446.298-.74a1.008 1.008 0 0 0-1.035-1.03H31.39c-.293 0-.54.1-.737.3a1.01 1.01 0 0 0-.298.74 1.008 1.008 0 0 0 1.035 1.03Zm0-6.476h7.384c.293 0 .539-.1.737-.3.199-.199.298-.446.298-.74a1.008 1.008 0 0 0-1.035-1.03H31.39c-.293 0-.54.1-.737.3a1.01 1.01 0 0 0-.298.74 1.008 1.008 0 0 0 1.035 1.03Zm0-6.477h7.384c.293 0 .539-.1.737-.299.199-.2.298-.446.298-.74a1.008 1.008 0 0 0-1.035-1.03H31.39c-.293 0-.54.1-.737.3a1.01 1.01 0 0 0-.298.74 1.008 1.008 0 0 0 1.035 1.03ZM20.576 46a2.48 2.48 0 0 1-1.819-.757 2.48 2.48 0 0 1-.757-1.82V20.577c0-.708.252-1.314.757-1.819a2.48 2.48 0 0 1 1.82-.757h22.847a2.48 2.48 0 0 1 1.819.757 2.48 2.48 0 0 1 .757 1.82v22.847a2.48 2.48 0 0 1-.757 1.819 2.48 2.48 0 0 1-1.82.757H20.577Zm0-2.07h22.848a.484.484 0 0 0 .348-.158.484.484 0 0 0 .159-.348V20.576a.484.484 0 0 0-.159-.348.484.484 0 0 0-.348-.159H20.576a.484.484 0 0 0-.348.159.484.484 0 0 0-.159.348v22.848c0 .127.053.243.159.348a.484.484 0 0 0 .348.159ZM20.1 20.07v23.86-23.86Z" fill="currentColor" fill-rule="nonzero"/></svg>
