<svg xmlns="http://www.w3.org/2000/svg" width="64" height="64" fill="none" viewBox="0 0 64 64"><path fill="#30CED0" d="M0 0h64v64H0z"/><path fill="#fff" d="M35.333 33.667c-1.389 0-2.57-.486-3.541-1.459-.973-.972-1.459-2.152-1.459-3.541 0-1.39.487-2.57 1.459-3.542.972-.972 2.152-1.458 3.541-1.458 1.39 0 2.57.486 3.542 1.458s1.458 2.153 1.458 3.542c0 1.389-.486 2.57-1.458 3.541-.972.973-2.153 1.459-3.542 1.459Zm-11.666 5a3.21 3.21 0 0 1-2.355-.98 3.21 3.21 0 0 1-.979-2.354V22c0-.917.327-1.701.98-2.354a3.21 3.21 0 0 1 2.354-.98H47a3.21 3.21 0 0 1 2.354.98 3.21 3.21 0 0 1 .98 2.354v13.333a3.21 3.21 0 0 1-.98 2.355 3.21 3.21 0 0 1-2.354.979H23.667ZM27 35.333h16.667c0-.916.326-1.701.979-2.354A3.21 3.21 0 0 1 47 32v-6.667a3.21 3.21 0 0 1-2.354-.979 3.21 3.21 0 0 1-.98-2.354H27a3.21 3.21 0 0 1-.98 2.354 3.21 3.21 0 0 1-2.353.98V32a3.21 3.21 0 0 1 2.354.98A3.21 3.21 0 0 1 27 35.332Zm18.333 10H17a3.21 3.21 0 0 1-2.354-.979 3.21 3.21 0 0 1-.98-2.354V23.667H17V42h28.333v3.333Z"/></svg>
