<svg width="64" height="64" xmlns="http://www.w3.org/2000/svg"><g fill="none" fill-rule="evenodd"><path fill="#ACC648" d="M0 0h64v64H0z"/><path d="M47.526 51 36 39.458l4.421-4.427 11.526 11.542L47.527 51Zm-29.052 0-4.421-4.427 14.526-14.547L25 28.442l-1.474 1.476-2.684-2.688v4.322l-1.474 1.476L13 26.65l1.474-1.475h4.315l-2.631-2.635 7.474-7.485c.701-.702 1.456-1.212 2.263-1.528a6.726 6.726 0 0 1 2.473-.474c.843 0 1.667.158 2.474.474.807.316 1.562.826 2.263 1.528l-4.842 4.85 2.632 2.635-1.474 1.475L33 27.6l4.737-4.743a8.795 8.795 0 0 1-.342-1.212 6.195 6.195 0 0 1-.132-1.265c0-2.073.71-3.821 2.132-5.244C40.815 13.712 42.56 13 44.632 13a6.89 6.89 0 0 1 1.5.158c.473.106.956.264 1.447.474l-5.21 5.218 3.789 3.795 5.21-5.218c.246.492.413.975.5 1.45.088.474.132.975.132 1.502 0 2.073-.71 3.82-2.132 5.244-1.42 1.423-3.166 2.134-5.236 2.134a7.66 7.66 0 0 1-1.264-.105 4.827 4.827 0 0 1-1.21-.37L18.474 51Z" fill="#FFF" fill-rule="nonzero"/></g></svg>
