<svg width="64" height="64" xmlns="http://www.w3.org/2000/svg"><g fill-rule="nonzero" fill="none"><path fill="#7047E7" d="M0 0h64v64H0z"/><g fill="#FFF"><path d="M43.775 39.911c-2.27-.619-4.011-1.47-5.626-2.157-.034.437-.196.896-.63 1.34-1.307 1.39-3.307 3.073-5.49 3.073-2.194 0-4.265-1.704-5.55-3.075-.45-.462-.598-.948-.614-1.4-1.618.722-3.363 1.518-5.64 2.139 0 0-2.5 1.53-2.741 7.169h29.032c-.16-5.72-2.741-7.089-2.741-7.089Z"/><path d="M54.792 41.29c-1.829-.499-3.231-1.185-4.532-1.738-.027.352-.158.722-.508 1.08-1.052 1.12-2.664 2.474-4.423 2.474-1.766 0-3.435-1.372-4.47-2.476a1.64 1.64 0 0 1-.494-1.128c-1.304.581-2.71 1.223-4.543 1.723 0 0-2.014 1.233-2.21 5.775H57c-.13-4.607-2.208-5.71-2.208-5.71ZM28.179 41.29c-1.829-.499-3.231-1.185-4.532-1.738-.027.352-.158.722-.508 1.08-1.052 1.12-2.663 2.474-4.423 2.474-1.766 0-3.435-1.372-4.47-2.476a1.64 1.64 0 0 1-.494-1.128c-1.304.581-2.71 1.223-4.543 1.723 0 0-2.014 1.233-2.209 5.775h23.387c-.13-4.607-2.208-5.71-2.208-5.71Z" opacity=".67"/><path d="M38.452 23.236c0-2.9-2.58-5.236-5.645-5.236h-1.613c-2.903 0-5.645 2.336-5.645 5.236v4.028c0 1.699 1.313 3.796 2.823 5.279-.08 4.35-1.371 4.79-.726 5.435 2.016 2.175 6.532 2.336 8.71 0 .642-.642-.476-1.047-.723-5.435 1.475-1.48 2.773-3.596 2.82-5.28v-4.027Z"/><path d="M50.504 27.857c0-2.336-2.079-4.218-4.547-4.218h-1.3c-2.338 0-4.547 1.882-4.547 4.218V31.1c0 1.369 1.058 3.059 2.274 4.253-.065 3.504-1.105 3.859-.585 4.378 1.624 1.752 5.262 1.882 7.016 0 .518-.517-.383-.843-.582-4.378 1.188-1.193 2.234-2.896 2.271-4.253v-3.244ZM23.891 27.857c0-2.336-2.079-4.218-4.547-4.218h-1.3c-2.338 0-4.547 1.882-4.547 4.218V31.1c0 1.369 1.058 3.059 2.274 4.253-.065 3.504-1.105 3.859-.585 4.378 1.624 1.752 5.262 1.882 7.016 0 .518-.517-.383-.843-.582-4.378 1.188-1.193 2.234-2.896 2.271-4.253v-3.244Z" opacity=".67"/></g></g></svg>
